<svg xmlns="http://www.w3.org/2000/svg" version="1.1" xmlns:xlink="http://www.w3.org/1999/xlink" xmlns:svgjs="http://svgjs.dev/svgjs" width="1500" height="939" viewBox="0 0 1500 939"><g transform="matrix(1,0,0,1,-0.9090909090909918,-1.5145161290323017)"><svg viewBox="0 0 396 248" data-background-color="#fafafa" preserveAspectRatio="xMidYMid meet" height="939" width="1500" xmlns="http://www.w3.org/2000/svg" xmlns:xlink="http://www.w3.org/1999/xlink"><g id="tight-bounds" transform="matrix(1,0,0,1,0.2400000000000091,0.4000000000000057)"><svg viewBox="0 0 395.52 247.2" height="247.2" width="395.52"><g><svg></svg></g><g><svg viewBox="0 0 395.52 247.2" height="247.2" width="395.52"><g transform="matrix(1,0,0,1,75.54432,75.84698004826726)"><svg viewBox="0 0 244.43135999999998 95.50603990346546" height="95.50603990346546" width="244.43135999999998"><g><svg viewBox="0 0 484.83840487054016 189.4396694528" height="95.50603990346546" width="244.43135999999998"><g transform="matrix(1,0,0,1,240.40704487054018,20.66026192412403)"><svg viewBox="0 0 244.43135999999998 148.11914560455193" height="148.11914560455193" width="244.43135999999998"><g id="textblocktransform"><svg viewBox="0 0 244.43135999999998 148.11914560455193" height="148.11914560455193" width="244.43135999999998" id="textblock"><g><svg viewBox="0 0 244.43135999999998 148.11914560455193" height="148.11914560455193" width="244.43135999999998"><g transform="matrix(1,0,0,1,0,0)"><svg width="244.43135999999998" viewBox="1.63 -31.95 52.72 31.95" height="148.11914560455193" data-palette-color="#001830"><path d="M15.35 0L11.2 0 11.2-31.28 15.35-31.28 15.35 0ZM24.93-28.48L1.63-28.48 1.63-31.95 24.93-31.95 24.93-28.48ZM31.97 0L27.77 0 37.77-31.95 44.32-31.95 54.35 0 50.15 0 41.37-29.15 40.75-29.15 31.97 0ZM48.32-9.43L33.77-9.43 33.77-12.88 48.32-12.88 48.32-9.43Z" opacity="1" transform="matrix(1,0,0,1,0,0)" fill="#001830" class="wordmark-text-0" data-fill-palette-color="primary" id="text-0"></path></svg></g></svg></g></svg></g></svg></g><g><svg viewBox="0 0 205.4396694528 189.4396694528" height="189.4396694528" width="205.4396694528"><g><svg xmlns="http://www.w3.org/2000/svg" xmlns:xlink="http://www.w3.org/1999/xlink" version="1.1" x="8" y="0" viewBox="5 5 90 90" enable-background="new 0 0 100 100" xml:space="preserve" height="189.4396694528" width="189.4396694528" class="icon-icon-0" data-fill-palette-color="accent" id="icon-0"><path d="M50 5C25.2 5 5 25.2 5 50S25.2 95 50 95 95 74.8 95 50 74.8 5 50 5M72.3 45.5C71.9 34.5 69.7 25 66.1 17.9 76.6 23.2 84.1 33.4 85.6 45.5zM33.8 17.9C30.3 25 28 34.5 27.6 45.5H14.3C15.9 33.4 23.4 23.2 33.8 17.9M27.7 54.5C28.3 65.8 30.9 75.6 35 82.6 23.9 77.6 16 67 14.3 54.5zM50 84.5C44.9 84.5 37.8 73.2 36.7 54.5H63.3C62.1 73.3 55.1 84.5 50 84.5M36.6 45.5C37.4 25.9 44.7 14 50 14S62.5 25.9 63.4 45.5zM65 82.6C69 75.6 71.7 65.8 72.2 54.5H85.6C84 67 76 77.6 65 82.6" fill="#001830" data-fill-palette-color="accent"></path></svg></g></svg></g></svg></g></svg></g><path d="M225.807 69.847L225.807 13.771 6.149 13.771 6.149 233.429 225.807 233.429 225.807 177.353 219.073 177.353 219.073 226.695 12.884 226.695 12.884 20.505 219.073 20.505 219.073 69.847Z" fill="#001830" stroke="transparent" data-fill-palette-color="tertiary"></path></svg></g><defs></defs></svg><rect width="395.52" height="247.2" fill="none" stroke="none" visibility="hidden"></rect></g></svg></g></svg>