<svg width="52" height="37" viewBox="0 0 52 37" fill="none" xmlns="http://www.w3.org/2000/svg">
<g clip-path="url(#clip0_138_31)">
<g clip-path="url(#clip1_138_31)">
<g clip-path="url(#clip2_138_31)">
<g clip-path="url(#clip3_138_31)">
<g clip-path="url(#clip4_138_31)">
<g clip-path="url(#clip5_138_31)">
<g clip-path="url(#clip6_138_31)">
<g clip-path="url(#clip7_138_31)">
<path d="M37.895 24.3924H36.2886V12.2838H37.895V24.3924ZM41.6035 13.3677H32.584V12.0244H41.6035V13.3677ZM44.3287 24.3924H42.7029L46.5739 12.0244H49.1094L52.9921 24.3924H51.3662L47.9675 13.1083H47.7275L44.3287 24.3924ZM50.6578 20.742H45.0255V19.4065H50.6578V20.742Z" fill="#4B5563"/>
</g>
</g>
</g>
</g>
<g clip-path="url(#clip8_138_31)">
<g clip-path="url(#clip9_138_31)">
<path d="M21.0859 10.2988C16.7271 10.2988 13.1768 13.8491 13.1768 18.2079C13.1768 22.5667 16.7271 26.117 21.0859 26.117C25.4447 26.117 28.995 22.5667 28.995 18.2079C28.995 13.8491 25.4447 10.2988 21.0859 10.2988ZM25.0053 17.417C24.935 15.4837 24.5483 13.814 23.9156 12.5661C25.761 13.4976 27.0792 15.2904 27.3428 17.417H25.0053ZM18.2386 12.5661C17.6234 13.814 17.2192 15.4837 17.1489 17.417H14.8113C15.0925 15.2904 16.4107 13.4976 18.2386 12.5661ZM17.1665 18.9988C17.2719 20.9849 17.7289 22.7073 18.4495 23.9376C16.4986 23.0589 15.1101 21.1958 14.8113 18.9988H17.1665ZM21.0859 24.2716C20.1895 24.2716 18.9416 22.2855 18.7483 18.9988H23.4234C23.2125 22.3031 21.9822 24.2716 21.0859 24.2716ZM18.7307 17.417C18.8713 13.9722 20.1543 11.8806 21.0859 11.8806C22.0174 11.8806 23.2828 13.9722 23.441 17.417H18.7307ZM23.7222 23.9376C24.4253 22.7073 24.8998 20.9849 24.9877 18.9988H27.3428C27.0616 21.1958 25.6556 23.0589 23.7222 23.9376Z" fill="#4B5563"/>
</g>
</g>
</g>
</g>
<path d="M37.3961 9.30518V0.0175781H1.01514V36.3985H37.3961V27.1109H36.2807V35.2832H2.13062V1.1329H36.2807V9.30518H37.3961Z" fill="#4B5563"/>
</g>
</g>
<defs>
<clipPath id="clip0_138_31">
<rect width="52" height="36.4164" fill="white"/>
</clipPath>
<clipPath id="clip1_138_31">
<rect width="65.5081" height="40.9426" fill="white" transform="translate(-0.0032959 -2.26367)"/>
</clipPath>
<clipPath id="clip2_138_31">
<rect width="40.484" height="15.8182" fill="white" transform="translate(12.5088 10.2988)"/>
</clipPath>
<clipPath id="clip3_138_31">
<rect width="40.484" height="15.8182" fill="white" transform="translate(12.5088 10.2988)"/>
</clipPath>
<clipPath id="clip4_138_31">
<rect width="20.41" height="12.368" fill="white" transform="translate(32.5828 12.0244)"/>
</clipPath>
<clipPath id="clip5_138_31">
<rect width="20.41" height="12.368" fill="white" transform="translate(32.5828 12.0244)"/>
</clipPath>
<clipPath id="clip6_138_31">
<rect width="20.41" height="12.368" fill="white" transform="translate(32.5828 12.0244)"/>
</clipPath>
<clipPath id="clip7_138_31">
<rect width="20.41" height="12.368" fill="white" transform="translate(32.5828 12.0244)"/>
</clipPath>
<clipPath id="clip8_138_31">
<rect width="17.1542" height="15.8182" fill="white" transform="translate(12.5088 10.2988)"/>
</clipPath>
<clipPath id="clip9_138_31">
<rect width="15.8182" height="15.8182" fill="white" transform="translate(13.1768 10.2988)"/>
</clipPath>
</defs>
</svg>
